<svg xmlns="http://www.w3.org/2000/svg" width="100%" viewBox="0 0 4020 4020" height="150" xmlns:v="https://vecta.io/nano"><path fill="#1e1a19" d="M3461.858 2349.874l-90.183 192.293c-108.763 218.296-238.431 423.503-389.137 615.327-72.105 91.778-148.638 179.71-229.501 263.891-163.741 170.457-342.972 322.742-536.576 458.216-63.604 44.507-128.585 86.912-194.668 127.638l-8.044 4.818-44.487-28.791c-129.843-85.386-254.72-177.477-373.876-277.27-76.422-64.004-150.248-130.87-221.437-200.665-169.93-166.604-322.349-347.888-457.027-544.094-86.798-126.452-165.338-257.834-235.918-394.003-102.706-198.15-187.19-403.824-255.012-616.397-44.949-140.882-82.209-283.772-112.233-428.57-16.631-80.208-31.535-160.737-43.089-241.816-9.3-65.263-17.777-130.681-24.695-196.234-6.71-63.584-11.447-127.391-16.177-191.164-5.274-71.125-7.238-142.398-8.285-213.718-1.072-72.992-.49-145.959 3.097-218.837 2.75-55.881 7.712-111.653 11.778-167.468.434-5.958 1.454-11.873 2.316-18.71l20.497-6.404c123.855-36.659 249.098-67.883 375.122-96.093 97.781-21.888 195.951-41.876 294.662-59.023l216.895-34.825c53.005-7.987 106.191-14.864 159.406-21.331 46.282-5.625 92.679-10.398 139.097-14.79l153.347-12.997c42.195-3.071 84.468-5.218 126.736-7.095l143.827-4.947 228.916 1.232c46.623.75 93.223 3.394 139.811 5.642l109.75 6.49 137.444 11.446 128.264 12.758 125.97 15.132 125.734 16.838 133.308 20.228 159.444 27.213 195.23 36.957 246.871 53.443c65.183 14.898 129.899 31.839 194.813 47.908 2.531.626 4.97 1.621 8.021 2.632 2.027 23.988 4.757 47.827 5.922 71.742l7.568 182.734c1.941 79.298.776 158.613-2.986 237.864l-6.544 127.767c-2.497 38.89-5.847 77.732-9.334 116.549l-10.66 105.377-14.49 113.968-23.231 146.969-39.886 203.751c-21.464 102.633-48.293 203.94-78.079 304.46-46.751 157.771-102.515 312.278-168.292 463.96m-748.626 748.375c55.362-64.526 108.085-131.146 158.118-199.881 153.394-210.732 279.237-436.981 380.231-677.112 108.569-258.139 186.298-525.44 236.897-800.772 21.201-115.366 37.772-231.382 48.913-348.122 5.822-61.008 10.277-122.176 13.899-183.357 4.509-76.171 6.144-152.455 5.423-228.785-.557-58.992-1.966-117.931-6.654-176.761-1.076-13.51-.858-13.633-13.804-17.481-117.194-34.832-236.19-62.321-356.092-85.803-71.532-14.009-143.325-26.847-215.272-38.533-67.365-10.942-135.008-20.299-202.683-29.17-50.516-6.622-101.237-11.782-151.944-16.819l-150.319-13.241-147.666-8.842c-82.188-4.653-164.475-6.322-246.769-6.855-90.639-.587-181.265.902-271.83 4.948l-145.76 7.069-172.4 13.141-150.169 14.766-152.644 19.243-154.117 23.027-212.127 39.09c-98.984 19.444-197.054 42.907-294.153 70.324-12.752 3.601-25.366 7.687-37.865 11.494-.293 2.186-.579 3.488-.627 4.799l-5.016 141.807c-.915 70.64.808 141.275 4.877 211.821l8.977 139.633 21.333 200.694c9.419 72.285 20.397 144.414 32.722 216.263 17.337 101.067 39.463 201.171 64.787 300.568 49.726 195.172 113.237 385.671 192.503 570.869 83.167 194.314 182.512 379.897 300.266 555.502 126.692 188.933 272.031 362.217 436.744 519.182 143.248 136.51 298.398 257.862 464.809 364.866l18.932 11.974c261.287-170.091 494.439-372.039 698.48-609.546z"/><path fill="#dbddda" d="M2712.768 3098.788c-203.576 236.968-436.728 438.916-698.015 609.007l-18.932-11.974c-166.411-107.003-321.561-228.356-464.809-364.866-164.713-156.965-310.051-330.249-436.744-519.182-117.754-175.604-217.099-361.188-300.266-555.502-79.266-185.199-142.777-375.698-192.503-570.869-25.324-99.396-47.45-199.501-64.787-300.568-12.325-71.849-23.303-143.978-32.722-216.263-8.691-66.695-15.234-133.699-21.333-200.694-4.228-46.432-6.292-93.068-8.977-139.633-4.069-70.546-5.793-141.18-4.877-211.821.613-47.283 3.259-94.54 5.016-141.807.049-1.311.334-2.613.627-4.799l37.865-11.494c97.099-27.417 195.168-50.88 294.153-70.324l212.127-39.09c51.183-8.786 102.66-15.946 154.117-23.027l152.644-19.243 150.169-14.766 172.4-13.141c48.538-3.114 97.164-4.898 145.76-7.069 90.564-4.046 181.19-5.535 271.83-4.948 82.294.533 164.581 2.201 246.769 6.855l147.666 8.842 150.319 13.241 151.944 16.819 202.683 29.17c71.948 11.686 143.74 24.524 215.272 38.533 119.902 23.482 238.897 50.971 356.092 85.803 12.945 3.848 12.727 3.97 13.804 17.481 4.688 58.83 6.096 117.768 6.654 176.761.722 76.331-.914 152.614-5.423 228.785-3.621 61.182-8.076 122.349-13.899 183.357-11.141 116.739-27.711 232.755-48.913 348.122-50.599 275.332-128.328 542.633-236.897 800.772-100.995 240.131-226.837 466.38-380.231 677.112-50.033 68.735-102.756 135.355-158.583 200.42m448.025-779.077c66.42-142.259 122.857-288.396 170.208-438.064 44.928-142.01 81.642-286.123 109.112-432.505 11.91-63.464 22.417-127.217 32.169-191.052 7.592-49.694 13.773-99.637 19.211-149.618 5.26-48.343 9.587-96.82 12.837-145.339l9.076-176.665c1.608-55.274 1.249-110.627.709-165.935-.383-39.286-2.503-78.555-3.857-118.068-4.285-1.444-7.65-2.82-11.139-3.717l-174.111-44.466c-86.437-20.742-173.584-38.277-261.138-53.602l-186.341-30.243c-53.024-7.889-106.242-14.582-159.484-20.869l-161.972-17.147c-47.1-4.382-94.291-8.031-141.51-10.836l-193.667-9.635c-84.915-3.385-169.895-4.527-254.861-2.698l-230.789 6.88c-38.951 1.393-77.883 3.754-116.769 6.468l-141.478 11.258-112.407 10.832-157.705 19.183-157.172 22.894-237.755 43.337c-96.065 18.763-191.26 41.441-285.514 67.941-4.113 1.156-8.18 2.475-12.21 3.7l-.56 7.662c-2.777 59.593-3.645 119.198-2.659 178.862 1.464 88.654 5.079 177.194 12.747 265.526l15.958 163.102c8.094 74.841 19.314 149.255 31.798 223.491 15.796 93.929 34.77 187.209 57.025 279.801 42.844 178.257 97.512 352.797 165.255 523.217 81.538 205.127 180.544 401.313 299.578 587.3 158.203 247.186 346.696 468.361 567.869 661.491 109.123 95.287 224.627 182.101 346.112 260.987 2.431 1.579 5.029 2.902 7.875 4.532l89.076-61.757c150.4-106.701 290.593-225.446 420.354-356.508 105.934-106.997 203.68-221.008 293.315-341.96 133.727-180.45 247.316-372.878 342.813-577.781z"/><path fill="#1e1918" d="M3160.474 2320.396c-95.179 204.219-208.768 396.646-342.495 577.096-89.635 120.952-187.381 234.963-293.315 341.96-129.76 131.062-269.954 249.807-420.354 356.508l-89.076 61.757c-2.847-1.63-5.444-2.953-7.875-4.532-121.485-78.886-236.99-165.7-346.112-260.987-221.173-193.13-409.666-414.306-567.869-661.491-119.035-185.987-218.04-382.173-299.578-587.3-67.742-170.421-122.41-344.961-165.255-523.217-22.255-92.592-41.228-185.872-57.025-279.801-12.484-74.236-23.703-148.65-31.798-223.491l-15.958-163.102c-7.668-88.331-11.283-176.872-12.747-265.526-.986-59.665-.118-119.27 2.659-178.862.108-2.316.335-4.627.56-7.662l12.21-3.7c94.254-26.5 189.45-49.178 285.514-67.941l237.755-43.337c52.178-8.888 104.693-15.903 157.172-22.894l157.705-19.183c37.403-4.208 74.905-7.596 112.407-10.832l141.478-11.258c38.885-2.713 77.817-5.075 116.769-6.468l230.789-6.88c84.967-1.829 169.946-.687 254.861 2.698l193.667 9.635c47.22 2.805 94.41 6.454 141.51 10.836l161.972 17.147 159.484 20.869 186.341 30.243c87.554 15.324 174.701 32.86 261.138 53.602l174.111 44.466c3.489.897 6.854 2.273 11.139 3.717l3.857 118.068-.709 165.935c-1.715 58.929-5.136 117.834-9.076 176.665-3.25 48.518-7.577 96.996-12.837 145.339-5.438 49.981-11.619 99.924-19.211 149.618-9.752 63.834-20.259 127.587-32.169 191.052-27.469 146.382-64.184 290.495-109.112 432.505-47.351 149.668-103.789 295.805-170.527 438.749m-720.111 504.028c-1.946-.387-3.921-.663-5.832-1.179-25.912-6.994-52.265-10.365-79.09-8.935-13.525.721-27.045 2.045-41.674 6.714 22.047 13.128 41.4 27.611 58.031 45.466 16.575 17.797 30.474 37.246 39.561 62.429-33.29-10.15-64.773-14.447-97.774-2.343 1.211 7.645 1.907 14.873 3.547 21.879 5.184 22.147 16.353 41.404 29.818 59.416 8.038 10.752 14.964 22.061 19.101 34.899 11.622 36.061 7.561 70.952-8.034 104.933-.301.655-1.258 1.01-2.314 1.812-1.747-3.41-3.091-6.429-4.771-9.248-7.668-12.861-14.562-26.31-23.446-38.277-6.634-8.936-15.545-16.326-24.12-23.606-3.727-3.164-9.157-4.322-14.329-6.62-.349 2.563-.7 3.554-.579 4.483 3.773 28.897 3.613 57.796-.601 86.601-3.544 24.22-10.383 47.474-22.583 68.9-1.309 2.299-3.137 4.302-5.626 7.656l-5.738-41.422c-3.496-20.418-8.841-40.352-18.578-58.808-2.725-5.166-6.242-9.913-10.015-15.821-3.715 4.114-6.584 6.857-8.944 9.984-7.904 10.47-13.708 22.015-17.284 34.679-4.187 14.824-12.226 27.308-23.688 37.513-2.973 2.647-6.607 4.552-11.605 7.921 2.941-18.247 7.944-34.168.176-50.796-15.527 5.834-21.609 19.51-29.673 32.304-7.499-10.333-10.123-21.013-11.403-33.003-26.883 15.039-49.912 32.871-69.754 54.785-12.167 13.437-25.942 24.955-41.526 34.181-6.234 3.691-12.973 6.527-19.138 9.582v61.153c2.691.186 4.644.412 6.6.443 53.054.857 105.83-2.378 158.411-9.703 67.228-9.366 132.689-25.369 195.824-50.451 97.909-38.898 180.932-97.261 242.118-184.498 31.462-44.858 56.659-92.548 69.836-146.069 11.737-47.673 13.634-96.232 11.781-144.931-1.895-49.793.198-99.231 9.473-148.21 4.658-24.598 11.533-48.614 23.598-70.809 8.641-15.897 19.958-28.873 37.154-36.272 6.619-2.848 12.577-7.471 18.385-11.881 3.884-2.949 8.715-6.842 6.062-12.396-2.476-5.183-8.513-4.846-13.36-4.103-9.193 1.409-18.329 3.328-27.386 5.468-37.091 8.766-66.29 29.062-86.782 61.18-8.218 12.88-15.758 26.321-22.271 40.136-17.577 37.281-27.927 76.885-35.856 117.174-5.671 28.816-19.438 53.059-41.741 72.101-23.426 20.001-47.512 19.983-70.51.694-15.79-13.243-20.448-29.144-12.473-48.238 4.058-9.718 9.486-19.229 16.014-27.472 12.395-15.652 25.776-30.551 39.202-45.351 21.738-23.962 43.397-47.909 59.816-76.073 15.778-27.064 23.001-55.831 18.943-87.162-3.303-25.501-8.855-50.534-16.955-74.884l-50.843-149.391c-10.103-28.978-15.969-58.542-13.913-89.205 3.937-58.715 21.696-110.858 71.62-147.492 5.408-3.968 9.61-10.132 13.077-16.037 3.362-5.727 1.02-10.713-5.409-12.281-5.033-1.228-10.591-1.59-15.723-.901-19.383 2.602-37.302 9.727-54.358 19.097-28.913 15.883-53.075 37.657-76.709 60.394-36.393 35.011-58.104 77.406-67.477 126.595-11.024 57.855-9.788 116.024-3.495 174.168 3.186 29.434 8.813 58.598 12.209 88.015 3.02 26.159 3.896 52.426-1.221 78.622-7.387 37.816-30.687 61.515-66.09 73.298-23.494 7.82-45.797 3.898-63.137-15.372-15.361-17.07-21.38-37.695-17.658-60.214 1.872-11.325 5.699-22.681 10.656-33.06 7.303-15.29 16.04-29.942 24.82-44.471 17.761-29.392 35.132-58.961 48.578-90.656 8.899-20.976 15.294-42.553 16.855-65.442 2.325-34.092-5.201-66.129-19.43-96.893-13.936-30.129-32.638-57.232-52.358-83.748-27.943-37.572-60.413-71.036-93.302-104.175-18.306-18.445-36.417-37.137-50.493-59.233-19.894-31.23-26.619-64.831-19.029-101.302 4.192-20.141 12.292-38.659 21.877-56.633l35.483-66.024c39.915-79.127 55.429-162.767 44.739-250.928-5.184-42.752-14.473-84.694-28.728-125.33-8.807-25.105-19.212-49.66-29.307-74.295-2.628-6.414-6.356-12.51-10.413-18.152-2.11-2.935-6.199-6.574-9.109-6.341-5.254.42-4.969 6.482-5.412 10.498-.618 5.589-.353 11.32-.008 16.962l4.855 77.765c1.516 48.672-.039 97.249-7.48 145.507-5.386 34.924-15.817 67.952-34.367 98.325-19.512 31.948-42.669 61.205-65.481 90.74-21.193 27.439-42.489 54.858-58.826 85.576-25.861 48.627-36.113 99.854-24.053 154.479 10.553 47.799 20.573 95.67 23.787 144.699 1.719 26.221.232 52.024-9.059 76.773-11.805 31.447-33.747 51.483-67.638 56.643-26.334 4.009-51.052-1.881-74.24-14.243-20.66-11.014-34.22-28.173-41.371-50.473-6.247-19.479-6.484-39.422-3.869-59.356 4.212-32.104 15.73-61.824 31.203-90.108l29.661-54.41c19.496-36.432 33.373-74.849 38.531-115.965 2.897-23.093 4.501-46.361 6.235-69.583 2.846-38.114.38-75.936-8.673-113.1-14.383-59.039-43.44-109.245-91.091-147.857-3.309-2.681-7.046-5.383-11.025-6.491-2.585-.72-6.928.565-8.73 2.547s-2.393 6.171-1.75 8.989c.689 3.017 3.17 5.798 5.334 8.276 9.548 10.931 16.58 23.309 21.76 36.8 14.261 37.139 19.607 76.043 21.285 115.393 1.626 38.134-8.69 73.759-26.512 107.362-14.645 27.612-33.755 51.857-54.937 74.657-19.73 21.237-39.793 42.215-58.572 64.275-31.573 37.09-56.444 78.296-72.405 124.588-6.133 17.789-9.507 35.958-9.364 54.843.223 29.486 7.706 57.302 18.922 84.249 16.128 38.746 39.022 73.468 64.173 106.82 13.238 17.555 27.033 34.733 39.48 52.834 28.978 42.141 43.404 88.88 41.686 140.238-.423 12.641-.983 25.311-2.31 37.88-3.304 31.306-10.285 61.727-23.834 90.351-6.741 14.24-14.791 27.719-26.554 38.407-4.857 4.413-10.404 8.624-16.39 11.125-13.819 5.774-25.636-1.995-26.911-16.922-.34-3.975-.408-8.007-.187-11.99l2.589-41.883c1.814-36.917 4.453-73.832 4.86-110.769.304-27.63-7.305-53.935-20.57-78.447-18.024-33.308-44.452-58.821-74.558-80.927-32.652-23.976-68.523-42.35-104.883-59.858-16.802-8.091-34.055-15.426-50.187-24.698-44.314-25.468-67.623-63.83-67.827-115.442-.038-9.66.754-19.332.505-28.981-.135-5.223-.913-10.695-2.751-15.542-2.23-5.881-7.425-6.932-12.013-2.66-3.079 2.867-5.686 6.622-7.409 10.47a88 88 0 0 0-5.617 17.019c-6.323 28.865-7.501 57.965-4.447 87.397 5.316 51.229 23.531 96.597 58.131 135.3 24.156 27.021 40.504 58.372 49.07 93.786 8.992 37.175 8.06 74.647 4.353 112.25-1.175 11.92-1.762 24.046-4.501 35.633-6.659 28.166-14.408 56.075-21.745 84.08-10.745 41.013-18.091 82.616-20.307 124.971-2.115 40.43 1.243 80.521 9.436 120.207 11.324 54.856 31.667 105.7 65.255 151 35.571 47.973 79.364 87.016 128.602 120.271 48.29 32.615 100.217 58.107 154.829 78.216 71.039 26.157 144.44 41.663 219.779 48.254 7.171.627 14.391.695 22.253 1.053 1.942-13.072 2.507-25.17-1.823-37.115-4.21-11.613-11.936-19.888-23.447-24.446-3.391-1.343-6.935-2.337-10.463-3.293-32.854-8.909-65.159-19.26-95.058-35.972-42.677-23.854-75.417-56.745-93.346-102.995-22.788-58.784-34.21-119.581-30.966-182.719.868-16.895 2.257-34.037 6.095-50.437 4.988-21.318 12.555-42.042 19.207-62.959 7.461-23.46 15.604-46.646 19.937-71.069 3.813-21.493-6.45-41.165-31.561-46.083-2.281-.447-4.453-1.455-7.565-2.501 10.198-6.351 21.692-8.296 29.232-18.17l-8.287-2.94c-7.141-2.629-7.949-4.044-7.601-11.758l1.046-27.972c.277-4.516 1.37-8.981 2.172-13.953 3.602 0 6.224-.169 8.818.031 8.631.664 15.441-1.723 20.413-9.54 3.99-6.271 10.717-9.458 18.063-8.761 6.485.616 13.146 2.146 19.14 4.671 21.455 9.041 42.438 19.273 65.311 23.663 5.68 20.443-4.123 34.382-24.565 35.218-4.281.175-8.598-.677-12.905-.952-2.08-.133-4.175-.023-7.378-.023l12.901 22.667c13.674 24.922 25.183 50.716 30.811 78.774l7.199 38.26c5.176 24.513 12.008 48.518 24.31 70.572 13.066 23.423 30.825 41.721 56.761 50.82 18.266 6.408 37.249 6.359 56.275 6.58 39.545.458 70.978-15.07 94.622-46.712 8.576-11.478 17.243-22.899 26.235-34.051 22.917-28.422 48.258-54.304 79.323-74.01 38.86-24.652 80.595-34.059 126.043-23.644 39.206 8.984 71.741 29.564 99.948 57.603 1.801 1.79 2.91 4.276 4.322 6.455 0 0-.024.024-1.634.422M1188.294 947.546c-2.095 2.366-4.786 4.421-6.198 7.141l-160.867 310.484c-1.14 2.203-1.931 4.588-3.003 7.173 1.791.419 2.715.823 3.639.824l110.968.154c5.096.024 7.79-1.969 9.916-6.435 6.728-14.131 14.276-27.888 20.576-42.199 2.955-6.711 6.936-8.324 13.742-8.288l143.959.154c2.93.002 5.86.267 8.961.419l4.278 8.253 20.191 41.278c2.245 4.763 4.983 6.912 10.612 6.869l106.969-.187c2.181-.004 4.36-.693 7.71-1.263l-17.742-34.409-145.557-281.284c-3.344-6.491-7.025-9.019-14.427-8.942l-113.726.258m729.439 225.724l-31.697-31.325c3.355-.956 4.922-1.304 6.42-1.846 11.85-4.288 24.333-7.371 35.414-13.143 46.465-24.203 54.44-71.589 44.753-107.025-6.569-24.028-22.759-40.234-44.141-51.664-23.912-12.782-49.83-19.63-76.649-20.081l-182.904-.647c-1.523-.002-3.047.631-4.408.932v61.837l36.481.076c2.86.043 6.947.047 8.317 1.776 3.618 4.561 8.106 3.85 12.657 3.852l174.924.011h11.566c8.428-10.962 13.03-10.6 22.568 1.353l8.812 1.107v21.27l-14.393.855v39.978h-26.658l-1.931 9.267h-10.189c-26.655.001-53.311.107-79.965-.073-6.592-.045-12.547 1.313-17.895 5.098-9.168 6.488-14.82 14.606-15.007 26.589-.307 19.7-9.397 32.707-25.441 37.683-4.722 1.465-9.77 2.611-14.673 2.624-13.308.035-26.627-.429-39.924-1.055-9.571-.451-19.115-1.478-29.308-2.299v114.153h109.02v-30.353-29.987l.049-29.986c.216-9.693-.98-19.484.967-30.304 2.29 2.408 3.691 3.765 4.961 5.234l94.027 108.958c4.188 4.883 8.422 7.35 15.236 7.289l119.946-.2c2.837-.003 5.673-.349 10.561-.67l-101.497-99.283m213.585-23.845c3.025 1.381 6.138 2.599 9.06 4.171 11.502 6.188 16.857 15.944 15.468 28.87-1.353 12.594-8.929 20.426-20.7 24.372-9.979 3.345-20.208 3.964-30.585 2.378-20.637-3.154-38.475-12.501-54.959-24.85-2.285-1.711-4.656-3.306-7.718-5.471l-37.599 66.718c1.861 1.341 2.645 1.96 3.48 2.5 48.193 31.189 100.437 42.203 156.554 29.075 36.427-8.522 62.691-30.161 74.813-66.642 5.623-16.925 7.652-34.467 6.486-52.253-2.141-32.666-17.574-56.75-47.247-71.128-7.771-3.765-15.8-7.114-23.958-9.937-13.522-4.68-27.381-8.407-40.829-13.28-6.798-2.463-13.594-5.77-19.35-10.084-10.704-8.022-11.288-20.711-2.167-30.49 6.673-7.155 15.264-10.437 24.835-11.5 18.693-2.077 35.639 2.768 51.272 12.864l9.655 6.262 33.627-63.884c-5.862-3.287-10.513-6.644-15.688-8.65-12.701-4.923-25.388-10.239-38.544-13.555-24.042-6.06-48.629-8.79-73.281-4.095-52.577 10.013-86.433 52.298-86.243 106.986.159 46.007 18.812 72.152 62.382 86.433 16.433 5.386 33.208 9.729 51.238 15.193m-952.949 1371.089l5.221 8.527c14.761 23.414 32.855 43.641 56.495 58.443 22.954 14.372 47.664 22.168 75.016 18.489 22.095-2.972 39.44-13.593 50.587-33.334 11.849-20.985 11.423-42.733 3.139-64.603-8.89-23.471-24.158-42.838-40.955-61.062-23.801-25.822-50.824-48.046-78.299-69.766-27.101-21.424-46.204-48.591-57.838-81.096-11.516-32.178-14.774-65.439-13.529-99.355.256-6.978.294-14.033-.487-20.948-.322-2.854-2.571-6.967-4.854-7.711-2.334-.76-6.094 1.456-8.655 3.209-2.394 1.639-4.169 4.276-5.98 6.654-7.123 9.355-12.526 19.611-16.185 30.819-8.861 27.14-12.479 55.16-13.744 83.51-1.717 38.47 1.961 76.571 10.049 114.153 8.429 39.17 19.577 77.5 40.019 114.071M853 491.5H700.937v345.819l97.177-.081V688.372h119.172v-46.231c-39.978-.806-79.429.321-118.684-.617-1.95-20.167-1.141-95.657 1.157-103.236h31.688 30.999l31.998-.018c10.517-.081 21.071.396 31.238-.338V491.5H853m1566.321 133.411v-86.708h128.135V492.15h-225.224v344.476h97.086V688.499h29.975 29.986l28.986-.033c9.844-.155 19.753.708 30.234-.654l-.008-22.762-.223-23.446h-118.948v-16.692M2587.968 1043v231.883h85.662l.559-131.179h31.311l28.996-.019c9.825-.089 19.691.397 29.264-.297 1.75-17.166 1.133-64.768-1.097-72.968h-88.047v-50.333h98.016v-71.552h-184.664V1043m-917.4-308.848c-.917-19.401.258-38.61 5.557-57.397 3.514-12.459 9.897-23.242 19.518-31.992 6.673-6.068 14.386-9.172 23.6-9.096 14.993.124 27.226 5.709 36.534 17.388 5.976 7.499 11.6 15.279 17.939 23.67l28.554-22.73c-10.091-11.644-20.075-21.727-31.525-30.419-11.655-8.848-24.721-14.344-38.882-17.367-16.119-3.441-32.515-3.759-48.735-1.76-31.083 3.83-55.748 18.729-73.428 44.891-16.503 24.419-22.398 51.67-21.562 80.623.573 19.86 4.247 39.178 14.941 56.29 25.586 40.94 64.977 53.999 110.536 52.441 14.079-.481 28.031-4.674 43.13-7.361v106.226h76.556V719.683c-15.284-2.159-69.321-1.424-76.632 1.172v9.645l.109 47.981c.116 5.826-2.094 10.035-5.683 14.315-15.937 19.007-60.493 22.657-72.628-13.727-1.785-5.351-3.508-10.804-4.418-16.347-1.453-8.852-2.2-17.819-3.48-28.57m1185.956 528.435v12.263h85.85v-254.954h71.345c1.916-17.521 1.21-64.667-.908-71.442h-227.826v72.142h71.539v241.992M1943.005 830.19c21.514 8.635 43.72 11.263 66.573 7.245 61.767-10.861 104.284-69.14 96.08-131.543-7.688-58.486-55.388-100.896-114.621-102.408-90.853-2.318-147.629 92.763-107.448 172.106 12.736 25.148 32.657 42.476 59.415 54.6m1154.156-68.538c18.903 53.58 75.049 85.83 132.309 75.74 46.22-8.145 83.964-44.406 94.003-89.939 10.563-47.906-8.277-96.188-48.172-123.457-50.143-34.273-118.364-25.629-157.036 20.845-28.387 34.114-34.658 73.098-21.104 116.811m-432.47-297.947l-68.219.126v11.286l.002 311.767c0 2.331-.103 4.672.063 6.993 1.688 23.637 13.382 37.429 35.728 41.608 6.185 1.157 12.564 1.702 18.862 1.76l66.949.047c2.533-.007 5.065-.508 7.476-.767V802.88c-2.977-.156-5.26-.359-7.544-.38-8.659-.08-17.329.157-25.975-.211-10.951-.466-14.922-3.72-16.903-14.584-1.124-6.162-1.195-12.575-1.199-18.875l-.048-292.781v-11.772c-3.364-.264-5.319-.417-9.193-.573M1468.52 666.464l-24.586-38.824c-11.922-18.874-28.914-26.537-51.044-23.779-15.173 1.891-25.392 9.785-29.218 24.512-1.402 5.396-1.86 11.17-1.872 16.773l-.055 183.887c.002 2.513.516 5.027.872 8.278l18.492-.017 19.4-.488V689.133c3.088 4.481 4.835 6.799 6.356 9.256l44.627 72.244 31.004 50.127c9.024 14.506 21.627 20.921 38.912 17.69 8.774-1.64 14.935-6.141 17.246-14.554 1.917-6.979 3.437-14.329 3.467-21.522l.13-190.883c-.002-2.522-.539-5.043-.81-7.413h-37.722v114.414l-1.959.419-33.241-52.448M1052.288 523v-58.572h-76.576v10.535l.015 310.89c.001 4.329-.114 8.695.375 12.981 1.333 11.702 5.701 21.94 15.774 28.84 7.271 4.98 15.403 8.212 24.243 8.389l84.901 1.091c1.217.012 2.442-.743 4.421-1.387-.204-10.876.832-21.664-.774-33.265-4.155 0-7.429.018-10.703-.004-7.996-.053-16.006.163-23.983-.259-10.009-.53-14.587-4.621-15.961-14.446-1.011-7.232-1.651-14.58-1.661-21.877L1052.288 523m238.71 314.324c6 0 12.011.23 17.996-.066 5.76-.284 11.808 1.464 17.757-1.77-.976-3.564-1.706-6.778-2.731-9.895l-58.857-178.31c-3.039-9.086-7.538-17.769-12.115-26.231-4.436-8.201-11.462-14.106-20.714-16.123-11.208-2.443-22.536-2.326-33.467 1.772-6.376 2.39-12.128 6.096-15.397 12.172-5.183 9.631-10.981 19.196-14.346 29.498l-58.12 181.686c-.643 2.022-.57 4.271-.934 7.267l24.772-.007c9.447-.038 9.453-.057 12.495-9.01l11.539-34.012 71.803.017c1.963.002 3.926.238 6.52.406l13.676 42.605 40.125.001m311.155 157.497v-46.415c-17.345-2.12-106.802-1.338-113.731.853v323.284h43.756c0-3.446-.099-6.389.016-9.323.961-24.738 4.435-48.847 13.422-72.274 7.974-20.786 14.29-42.247 20.552-63.64 5.839-19.949-2.984-34.802-22.689-40.382-3.957-1.121-8.644-1.399-10.948-7.322 2.73-1.769 5.31-3.631 8.065-5.182 4.347-2.448 8.943-4.472 13.201-7.058 9.82-5.965 14.291-14.807 12.458-26.203-.835-5.19-2.76-10.223-4.415-15.253-.828-2.516-2.429-4.783-3.201-7.31-1.251-4.096.532-6.963 4.725-6.603 3.433.295 7.018 1.755 10.003 3.573 3.749 2.282 7.591 2.375 10.046-.484 4.915-5.721 11.376-5.79 18.741-5.749v-14.511m1333.7-179.869v21.294c14.241 1.911 68.794 1.425 76.939-.761V647.604l59.853-.224v-41.002h-196.313v40.567c19.96 1.536 39.485-.479 59.521 1.22v166.787M1504.121 1847.044c-.013-19.38-2.083-38.559-6.302-57.452-3.783-16.941-8.724-33.568-18.195-48.347-2.826-4.41-6.417-8.595-10.468-11.884-4.394-3.568-8.589-1.611-9.027 4.155-.449 5.915-.354 12.049.708 17.867 2.967 16.254 2.833 32.463.016 48.611-5.261 30.159-19.616 55.425-41.088 77.195-13.772 13.963-26.843 28.706-39.26 43.891-10.778 13.18-19.397 27.889-23.534 44.753-6.641 27.072 8.869 52.159 36.075 58.297 19.68 4.441 36.894-1.822 52.616-12.947 22.088-15.629 35.326-37.829 43.937-62.843 11.059-32.127 14.537-65.5 14.522-101.298M2761.714 745l.045 91.254c14.605 1.924 68.797 1.418 75.779-.489V606.458h-75.824V745m-424.265 370.531c-14.798-15.887-21.748-35.274-24.141-56.16-18.34-2.076-77.372-1.281-84.009 1.011 1.106 96.366 85.313 169.108 166.322 168.238v-83.976c-22.624-2.63-41.636-11.973-58.172-29.113m215.523-57.002c-19.502.018-39.006-.042-58.325.04-7.07 49.484-34.348 77.929-82.008 86.48-2.162 11.839-1.612 77.667.653 84.343 104.83-4.77 167.683-97.837 164.286-170.863-7.488 0-15.055 0-24.606 0M2314.93 903.887c-46.735 28.591-74.739 69.942-84.148 123.858-.878 5.031-.742 10.239-1.094 15.627h84.194c9.267-45.106 36.568-71.376 81.577-78.821v-84.553c-28.838 1.325-54.906 9.236-80.528 23.889m146.401 81.721c18.314 15.02 28.091 34.955 32.236 57.506 17.848 1.845 77.342 1.136 84.149-.896-3.4-94.066-90.861-163.861-165.489-160.782-1.765 14.536-1.129 76.385.966 83.646 17.304 2.285 33.272 8.364 48.137 20.527m-99.364 1043.586c.06 3.997-.136 8.017.223 11.987 1.754 19.397 12.607 32.29 30.507 35.987 12.553 2.593 23.77-.92 33.71-8.661 10.88-8.474 17.59-19.805 21.868-32.744 5.895-17.826 6.54-36.154 3.13-54.298-7.673-40.829-23.079-78.508-49.094-111.296-8.285-10.443-17.412-20.247-29.292-26.859-4.291-2.389-8.715-4.942-14.23-2.49-1.382 7.64 3.161 12.752 6.911 18.075 13.059 18.534 19.406 39.276 20.083 61.769.478 15.882-3.583 30.939-9.036 45.745-7.262 19.719-13.114 39.826-14.78 62.785m346.677 352.402c-2.3 1.92-4.708 3.725-6.882 5.779-15.125 14.294-28.62 29.811-36.028 49.679-4.793 12.853-6.039 26.016-1.127 39.057 6.288 16.694 23.037 21.722 37.217 10.808 5.38-4.141 10.003-9.85 13.51-15.718 7.108-11.892 10.277-25.183 10.794-39.048.841-22.531 6.835-42.688 25.952-56.886 1.053-.782 2.035-1.768 2.772-2.848 2.773-4.065 1.662-8.3-3.063-9.312-3.388-.726-7.3-.427-10.681.499-11.747 3.213-21.816 9.713-32.465 17.99m-776.179-673.921c-1.996 6.688-4.739 13.256-5.836 20.088-2.479 15.449 7.476 28.265 22.629 29.547 8.721.738 16.328-2.678 22.9-8.272 9.799-8.34 15.235-19.287 17.856-31.624 4.748-22.352 2.04-44.409-3.543-66.219-3.91-15.27-9.626-29.826-19.38-42.429-3.585-4.632-7.218-9.575-13.87-10.129-2.753 4.824-.525 8.838 1.059 12.756 9.736 24.082 6.903 46.804-6.661 68.689-5.253 8.475-9.677 17.464-15.154 27.593m881.177-1158.301c18.136-6.788 30.254-27.483 24.499-47.642-5.968-20.901-28.124-33.517-49.302-27.521-20.498 5.804-32.865 28.227-26.973 48.713 5.709 19.851 27.665 34.621 51.776 26.45m-1083.891 549.907l-13.964-.901c0 5.867-.138 10.441.027 15.004.447 12.374 10.087 20.377 15.545 30.542-6.877 1.781-9.338 1.14-14.248-4.052-7.853-8.302-11.481-18.556-13.226-29.626l-1.974-11.456c-7.615 2.803-14.078 4.543-19.933 7.489-8.555 4.305-16.1 10.118-16.018 21.013.082 10.856 7.648 16.526 16.194 20.935 15.37 7.928 31.913 9.781 48.611 6.639 8.98-1.69 18.281-4.675 26.008-9.409 16.269-9.969 15.803-26.524-.167-36.903-7.64-4.966-16.104-7.921-26.854-9.276z"/><path fill="#e57826" d="M2442.017 2823.985c-1.431-2.162-2.541-4.648-4.341-6.438-28.207-28.039-60.743-48.62-99.948-57.603-45.448-10.414-87.183-1.008-126.043 23.644-31.065 19.706-56.406 45.588-79.323 74.01-8.992 11.152-17.659 22.573-26.235 34.051-23.644 31.643-55.077 47.171-94.622 46.712-19.026-.22-38.009-.171-56.275-6.58-25.936-9.099-43.695-27.397-56.761-50.82-12.302-22.054-19.135-46.059-24.31-70.572-2.68-12.694-4.647-25.537-7.199-38.26-5.628-28.058-17.137-53.852-30.811-78.774-3.976-7.246-8.17-14.371-12.901-22.667 3.203 0 5.299-.109 7.378.023 4.307.275 8.624 1.127 12.905.952 20.442-.836 30.245-14.775 24.565-35.218-22.873-4.39-43.856-14.622-65.311-23.663-5.994-2.526-12.655-4.056-19.14-4.671-7.346-.697-14.074 2.49-18.063 8.761-4.973 7.817-11.782 10.203-20.413 9.54-2.594-.2-5.216-.031-8.818-.031-.802 4.972-1.896 9.438-2.172 13.953-.571 9.311-.625 18.651-1.046 27.972-.348 7.714.46 9.128 7.601 11.758l8.287 2.94c-7.54 9.874-19.034 11.819-29.232 18.17 3.113 1.047 5.284 2.055 7.565 2.501 25.111 4.918 35.374 24.59 31.561 46.083-4.333 24.423-12.476 47.609-19.937 71.069-6.652 20.917-14.219 41.641-19.207 62.959-3.838 16.4-5.227 33.542-6.095 50.437-3.244 63.138 8.178 123.935 30.966 182.719 17.929 46.25 50.67 79.141 93.346 102.995 29.9 16.712 62.204 27.063 95.058 35.972 3.528.956 7.071 1.95 10.463 3.293 11.511 4.557 19.237 12.833 23.447 24.446 4.33 11.945 3.765 24.043 1.823 37.115-7.862-.358-15.082-.426-22.253-1.053-75.339-6.591-148.74-22.096-219.779-48.254-54.612-20.108-106.539-45.6-154.829-78.216-49.238-33.255-93.031-72.297-128.602-120.271-33.588-45.3-53.932-96.144-65.255-151-8.192-39.686-11.551-79.777-9.436-120.207 2.216-42.355 9.562-83.958 20.307-124.971l21.745-84.08c2.739-11.587 3.326-23.713 4.501-35.633 3.707-37.603 4.639-75.075-4.353-112.25-8.566-35.414-24.914-66.765-49.07-93.786-34.6-38.703-52.815-84.071-58.131-135.3-3.054-29.432-1.876-58.532 4.447-87.397a88 88 0 0 1 5.617-17.019c1.723-3.848 4.33-7.603 7.409-10.47 4.588-4.272 9.784-3.221 12.013 2.66 1.838 4.848 2.616 10.319 2.751 15.542.25 9.649-.543 19.321-.505 28.981.204 51.612 23.513 89.974 67.827 115.442 16.132 9.271 33.384 16.606 50.187 24.698 36.36 17.508 72.231 35.882 104.883 59.858 30.106 22.106 56.534 47.619 74.558 80.927 13.265 24.512 20.874 50.817 20.57 78.447-.407 36.937-3.046 73.852-4.86 110.769l-2.589 41.883c-.221 3.983-.153 8.015.187 11.99 1.275 14.927 13.092 22.696 26.911 16.922 5.986-2.501 11.532-6.712 16.39-11.125 11.763-10.687 19.813-24.167 26.554-38.407 13.549-28.624 20.53-59.045 23.834-90.351 1.327-12.569 1.887-25.24 2.31-37.88 1.718-51.358-12.708-98.097-41.686-140.238-12.447-18.102-26.241-35.279-39.48-52.834-25.151-33.352-48.044-68.073-64.173-106.82-11.217-26.947-18.7-54.763-18.922-84.249-.143-18.884 3.231-37.053 9.364-54.843 15.96-46.292 40.831-87.498 72.405-124.588 18.779-22.06 38.842-43.038 58.572-64.275 21.182-22.8 40.292-47.044 54.937-74.657 17.822-33.603 28.138-69.229 26.512-107.362-1.678-39.35-7.024-78.254-21.285-115.393-5.18-13.491-12.212-25.869-21.76-36.8-2.164-2.478-4.645-5.258-5.334-8.276-.644-2.818-.055-7.004 1.75-8.989s6.145-3.267 8.73-2.547c3.979 1.109 7.717 3.81 11.025 6.491 47.651 38.612 76.708 88.818 91.091 147.857 9.054 37.164 11.519 74.986 8.673 113.1-1.734 23.223-3.338 46.491-6.235 69.583-5.158 41.116-19.035 79.533-38.531 115.965l-29.661 54.41c-15.473 28.283-26.991 58.003-31.203 90.108-2.615 19.934-2.378 39.877 3.869 59.356 7.151 22.3 20.711 39.459 41.371 50.473 23.189 12.362 47.907 18.252 74.24 14.243 33.891-5.159 55.833-25.196 67.638-56.643 9.291-24.75 10.778-50.552 9.059-76.773-3.214-49.029-13.234-96.9-23.787-144.699-12.06-54.625-1.808-105.852 24.053-154.479 16.338-30.719 37.634-58.138 58.826-85.576 22.811-29.535 45.968-58.792 65.481-90.74 18.55-30.373 28.981-63.401 34.367-98.325 7.442-48.258 8.996-96.836 7.48-145.507-.808-25.946-3.272-51.84-4.855-77.765-.345-5.642-.61-11.373.008-16.962.444-4.016.159-10.078 5.412-10.498 2.911-.233 6.999 3.407 9.109 6.341 4.056 5.642 7.784 11.738 10.413 18.152 10.095 24.635 20.5 49.19 29.307 74.295 14.255 40.636 23.544 82.577 28.728 125.33 10.69 88.162-4.824 171.802-44.739 250.928-11.249 22.3-23.727 43.977-35.483 66.024-9.584 17.974-17.685 36.492-21.877 56.633-7.59 36.471-.866 70.072 19.029 101.302 14.076 22.096 32.187 40.788 50.493 59.233 32.889 33.139 65.359 66.604 93.302 104.175 19.72 26.516 38.423 53.619 52.358 83.748 14.229 30.764 21.756 62.801 19.43 96.893-1.562 22.888-7.956 44.466-16.855 65.442-13.447 31.695-30.817 61.264-48.578 90.656-8.78 14.529-17.517 29.181-24.82 44.471-4.957 10.379-8.784 21.735-10.656 33.06-3.722 22.519 2.297 43.144 17.658 60.214 17.34 19.269 39.643 23.191 63.137 15.372 35.403-11.783 58.703-35.482 66.09-73.298 5.117-26.196 4.241-52.463 1.221-78.622-3.396-29.417-9.024-58.581-12.209-88.015-6.293-58.144-7.529-116.313 3.495-174.168 9.373-49.189 31.083-91.584 67.477-126.595 23.635-22.737 47.796-44.511 76.709-60.394 17.056-9.37 34.976-16.495 54.358-19.097 5.132-.689 10.69-.327 15.723.901 6.429 1.568 8.771 6.554 5.409 12.281-3.467 5.905-7.669 12.068-13.077 16.037-49.925 36.634-67.683 88.778-71.62 147.492-2.056 30.663 3.81 60.227 13.913 89.205l50.843 149.391c8.1 24.35 13.652 49.384 16.955 74.884 4.058 31.331-3.165 60.097-18.943 87.162-16.419 28.164-38.078 52.11-59.816 76.073-13.426 14.8-26.807 29.699-39.202 45.351-6.528 8.243-11.956 17.754-16.014 27.472-7.975 19.094-3.317 34.995 12.473 48.238 22.998 19.289 47.085 19.308 70.51-.694 22.303-19.042 36.07-43.285 41.741-72.101 7.929-40.289 18.28-79.893 35.856-117.174 6.513-13.815 14.053-27.256 22.271-40.136 20.492-32.118 49.691-52.415 86.782-61.18 9.057-2.14 18.193-4.059 27.386-5.468 4.847-.743 10.885-1.08 13.36 4.103 2.653 5.554-2.178 9.448-6.062 12.396-5.808 4.41-11.766 9.033-18.385 11.881-17.196 7.399-28.513 20.375-37.154 36.272-12.065 22.196-18.94 46.212-23.598 70.809-9.275 48.979-11.367 98.417-9.473 148.21 1.853 48.699-.044 97.258-11.781 144.931-13.177 53.521-38.374 101.211-69.836 146.069-61.186 87.237-144.209 145.6-242.118 184.498-63.136 25.083-128.597 41.085-195.824 50.451-52.581 7.325-105.357 10.56-158.411 9.703-1.956-.031-3.909-.257-6.6-.443v-61.153c6.165-3.055 12.905-5.891 19.138-9.582 15.584-9.226 29.36-20.744 41.526-34.181 19.842-21.914 42.871-39.746 69.754-54.785 1.28 11.99 3.904 22.671 11.403 33.003 8.064-12.794 14.146-26.47 29.673-32.304 7.768 16.628 2.765 32.548-.176 50.796 4.998-3.37 8.632-5.275 11.605-7.921 11.462-10.205 19.502-22.689 23.688-37.513 3.577-12.664 9.38-24.209 17.284-34.679 2.36-3.127 5.229-5.87 8.944-9.984 3.772 5.908 7.29 10.655 10.015 15.821 9.737 18.456 15.081 38.39 18.578 58.808 2.231 13.03 3.66 26.196 5.738 41.422 2.489-3.354 4.317-5.357 5.626-7.656 12.199-21.426 19.039-44.68 22.583-68.9 4.214-28.804 4.374-57.704.601-86.601-.121-.929.23-1.92.579-4.483 5.172 2.298 10.601 3.456 14.329 6.62 8.575 7.28 17.486 14.67 24.12 23.606 8.884 11.967 15.778 25.416 23.446 38.277 1.681 2.819 3.024 5.837 4.771 9.248 1.056-.802 2.013-1.157 2.314-1.812 15.595-33.981 19.656-68.872 8.034-104.933-4.138-12.838-11.064-24.147-19.101-34.899-13.465-18.012-24.634-37.269-29.818-59.416-1.64-7.007-2.337-14.234-3.547-21.879 33-12.104 64.484-7.807 97.774 2.343-9.087-25.183-22.986-44.632-39.561-62.429-16.63-17.855-35.983-32.338-58.031-45.466 14.629-4.668 28.149-5.992 41.674-6.714 26.825-1.43 53.178 1.94 79.09 8.935 1.911.516 3.886.792 6.622 1.406 1.252.199 1.713.171 2.175.143l-1.311-.809z"/><path fill="#a7a7aa" d="M1189.173 947.512l112.847-.224c7.402-.077 11.083 2.451 14.427 8.942l145.557 281.284 17.742 34.409c-3.349.569-5.529 1.259-7.71 1.263-35.657.068-71.314-.085-106.969.187-5.629.043-8.366-2.106-10.612-6.869l-20.191-41.278c-1.31-2.659-2.726-5.266-4.278-8.253-3.1-.151-6.03-.417-8.961-.419-47.987-.026-95.974.1-143.959-.154-6.806-.036-10.788 1.577-13.742 8.288-6.3 14.311-13.848 28.068-20.576 42.199-2.127 4.466-4.821 6.459-9.916 6.435l-110.968-.154c-.924-.001-1.848-.405-3.639-.824 1.072-2.585 1.862-4.969 3.003-7.173l160.867-310.484c1.412-2.72 4.103-4.776 7.077-7.175M1251 1152l22.933-.01 24.096-.28-49.246-100.19-49.46 100.48H1251z"/><path fill="#a6a6a9" d="M1918.233 1173.77l100.996 98.783c-4.887.321-7.724.668-10.561.67-39.983.035-79.967-.158-119.946.2-6.814.061-11.048-2.406-15.236-7.289l-94.027-108.958c-1.27-1.469-2.671-2.826-4.961-5.234-1.947 10.82-.751 20.611-.967 30.304-.223 9.991-.049 19.99-.049 29.986v29.987 30.353h-109.02v-114.153c10.194.821 19.737 1.849 29.308 2.299 13.298.626 26.616 1.09 39.924 1.055 4.902-.013 9.95-1.159 14.673-2.624 16.044-4.976 25.134-17.984 25.441-37.683.187-11.983 5.839-20.102 15.007-26.589 5.348-3.785 11.303-5.142 17.895-5.098l79.965.073h10.189l1.931-9.267h26.658v-39.978l14.393-.855v-21.27l-8.812-1.107c-9.539-11.952-14.14-12.315-22.568-1.353H1896.9c-58.308 0-116.616.006-174.924-.011-4.551-.001-9.04.71-12.657-3.852-1.371-1.729-5.457-1.732-8.317-1.776l-36.481-.076v-61.837c1.361-.301 2.885-.934 4.408-.932l182.904.647c26.819.45 52.736 7.299 76.649 20.081 21.382 11.43 37.573 27.636 44.141 51.664 9.688 35.436 1.713 82.822-44.753 107.025-11.081 5.772-23.564 8.855-35.414 13.143-1.497.542-3.065.889-6.42 1.846 10.959 11.327 21.442 21.218 32.197 31.824z"/><path fill="#a7a7aa" d="M2130.612 1149.102c-17.324-5.141-34.1-9.484-50.533-14.871-43.57-14.281-62.223-40.426-62.382-86.433-.19-54.688 33.667-96.973 86.243-106.986 24.652-4.695 49.24-1.964 73.281 4.095 13.156 3.316 25.843 8.631 38.544 13.555 5.175 2.006 9.827 5.363 15.688 8.65l-33.627 63.884-9.655-6.262c-15.633-10.097-32.579-14.942-51.272-12.864-9.571 1.063-18.163 4.345-24.835 11.5-9.12 9.779-8.537 22.468 2.167 30.49 5.756 4.314 12.552 7.621 19.35 10.084 13.447 4.873 27.306 8.6 40.829 13.28 8.158 2.824 16.188 6.172 23.958 9.937 29.672 14.378 45.106 38.462 47.247 71.128 1.166 17.785-.863 35.328-6.486 52.253-12.121 36.481-38.386 58.121-74.812 66.642-56.117 13.128-108.361 2.114-156.554-29.075-.835-.54-1.619-1.159-3.48-2.5l37.599-66.718 7.718 5.471c16.484 12.349 34.323 21.696 54.959 24.85 10.377 1.586 20.607.967 30.585-2.378 11.771-3.946 19.347-11.778 20.7-24.372 1.389-12.925-3.966-22.682-15.468-28.87-2.922-1.572-6.035-2.79-9.765-4.494z"/><path fill="#e57726" d="M1178.041 2519.856c-20.115-35.914-31.262-74.243-39.691-113.414-8.087-37.582-11.766-75.683-10.049-114.153 1.265-28.35 4.883-56.37 13.744-83.51 3.659-11.208 9.062-21.464 16.185-30.819 1.811-2.378 3.586-5.015 5.98-6.654 2.561-1.753 6.321-3.969 8.655-3.209 2.283.744 4.531 4.857 4.854 7.711.781 6.916.744 13.97.487 20.948-1.245 33.916 2.013 67.177 13.529 99.355 11.633 32.506 30.737 59.672 57.838 81.096 27.475 21.72 54.498 43.944 78.299 69.766 16.797 18.224 32.065 37.591 40.955 61.062 8.284 21.87 8.71 43.618-3.139 64.603-11.146 19.741-28.492 30.362-50.587 33.334-27.352 3.679-52.063-4.116-75.016-18.489-23.64-14.803-41.734-35.029-56.495-58.443-1.777-2.819-3.482-5.683-5.548-9.184z"/><path d="M854 491.5h71.682v46.432c-10.167.734-20.72.256-31.238.338l-31.998.018h-30.999-31.687c-2.298 7.579-3.107 83.07-1.157 103.236 39.254.938 78.706-.19 118.684.617v46.231H798.114v148.866l-97.177.081V491.5H854zm1565.321 134.394v15.709h118.948l.223 23.446.008 22.762c-10.481 1.362-20.39.499-30.234.654l-28.986.033h-29.986-29.975v148.127h-97.086V492.15h225.224v46.054h-128.135v87.691z" fill="#e47726"/><path fill="#a7a6a9" d="M2587.968 1042v-93.465h184.664v71.552h-98.016v50.333h88.047c2.231 8.199 2.848 55.802 1.097 72.968-9.573.694-19.438.208-29.264.297l-28.996.019h-31.311c-.844 43.802.161 87.224-.559 131.179h-85.662V1042z"/><path fill="#e37726" d="M1670.685 735.069c1.163 9.835 1.909 18.802 3.362 27.654.91 5.544 2.633 10.996 4.418 16.347 12.135 36.384 56.69 32.734 72.628 13.727 3.589-4.28 5.799-8.49 5.683-14.315-.318-15.988-.109-31.986-.109-47.981v-9.645c7.311-2.597 61.349-3.331 76.632-1.172v217.877h-76.556V831.335c-15.099 2.687-29.051 6.88-43.13 7.361-45.559 1.558-84.95-11.502-110.536-52.441-10.694-17.112-14.368-36.43-14.941-56.29-.836-28.953 5.059-56.204 21.562-80.623 17.681-26.162 42.345-41.061 73.428-44.891 16.219-1.999 32.616-1.681 48.735 1.76 14.161 3.023 27.227 8.519 38.882 17.367 11.45 8.693 21.434 18.775 31.525 30.419l-28.554 22.73-17.939-23.67c-9.307-11.679-21.541-17.265-36.534-17.388-9.214-.076-16.927 3.028-23.6 9.096-9.621 8.749-16.003 19.533-19.518 31.992-5.299 18.787-6.475 37.996-5.44 58.313z"/><path fill="#a7a7aa" d="M2856.524 1261.635v-241.04h-71.539v-72.142h227.826c2.118 6.775 2.824 53.921.908 71.442h-71.345v254.954h-85.85v-13.215z"/><path d="M1942.288 829.923c-26.041-11.857-45.963-29.185-58.698-54.333-40.181-79.343 16.594-174.424 107.448-172.106 59.233 1.511 106.932 43.922 114.621 102.408 8.203 62.402-34.313 120.682-96.08 131.543-22.853 4.018-45.059 1.39-67.29-7.511m62.083-193.849c-18.543-9.628-34.303-4.269-42.471 14.645-1.701 3.94-2.83 8.162-3.888 12.339-3.788 14.957-4.513 30.256-4.594 45.584-.125 23.622-1.183 47.364 4.68 70.533 1.767 6.982 4.32 14.151 8.206 20.135 10.527 16.212 33.925 16.141 44.624.061 3.249-4.883 5.565-10.649 7.141-16.335 4.925-17.768 5.864-36.033 5.977-54.4.129-20.999.052-41.968-4.237-62.634-2.248-10.831-5.344-21.383-15.438-29.929zM3096.861 760.92c-13.254-42.981-6.983-81.965 21.404-116.079 38.672-46.474 106.893-55.118 157.036-20.845 39.895 27.269 58.734 75.55 48.172 123.457-10.039 45.533-47.783 81.794-94.003 89.939-57.26 10.09-113.406-22.159-132.609-76.471m75.628-38.025c.556 11.96.566 23.978 1.813 35.865 1.42 13.534 3.204 27.172 10.522 39.182 10.709 17.575 35.585 17.993 46.475.519 3.104-4.982 5.43-10.771 6.728-16.503 8.112-35.821 7.5-71.997 2.702-108.116-1.248-9.391-4.364-18.792-8.158-27.52-4.514-10.384-13.529-14.994-25.009-14.819-11.175.17-19.064 5.462-23.868 15.179-2.479 5.014-4.348 10.431-5.756 15.857-4.975 19.169-4.689 38.874-5.448 60.357z" fill="#e47726"/><path fill="#e37626" d="M2665.651 463.705l8.234.572v11.772l.048 292.781c.005 6.3.075 12.713 1.199 18.875 1.981 10.864 5.952 14.119 16.903 14.584 8.646.367 17.316.13 25.975.211 2.284.021 4.567.224 7.544.38v33.645c-2.411.259-4.943.76-7.476.767-22.317.061-44.635.16-66.949-.047-6.297-.058-12.676-.604-18.862-1.76-22.347-4.179-34.04-17.971-35.728-41.608-.166-2.321-.063-4.662-.063-6.993l-.002-311.767V463.83l69.178-.125z"/><path d="M1468.921 667.069l32.84 51.844 1.959-.419V604.079h37.722c.271 2.369.808 4.891.81 7.413l-.13 190.883c-.03 7.193-1.55 14.544-3.467 21.522-2.311 8.414-8.472 12.915-17.246 14.554-17.285 3.23-29.888-3.185-38.912-17.69l-31.004-50.127-44.627-72.244c-1.521-2.457-3.268-4.775-6.356-9.256v147.673l-19.4.488-18.492.017c-.356-3.251-.87-5.765-.872-8.278l.055-183.887c.012-5.603.47-11.377 1.872-16.773 3.825-14.726 14.045-22.621 29.218-24.512 22.129-2.758 39.122 4.906 51.044 23.779l24.987 39.428zM1052.288 524l.071 241.914c.01 7.297.65 14.645 1.661 21.877 1.374 9.825 5.952 13.916 15.961 14.446 7.977.423 15.988.207 23.983.259l10.703.004c1.606 11.601.57 22.389.774 33.265-1.979.644-3.204 1.399-4.421 1.387l-84.901-1.091c-8.841-.176-16.973-3.409-24.243-8.389-10.074-6.9-14.441-17.138-15.774-28.84-.488-4.286-.374-8.651-.375-12.981l-.015-310.89v-10.535h76.576V524z" fill="#e57726"/><path fill="#e37726" d="M1289.999 837.324h-39.126l-13.676-42.605-6.52-.406-71.803-.017-11.539 34.012c-3.043 8.953-3.049 8.972-12.495 9.01l-24.772.007c.365-2.996.292-5.245.934-7.267l58.12-181.686c3.365-10.302 9.162-19.867 14.346-29.498 3.27-6.076 9.021-9.782 15.397-12.172 10.931-4.098 22.259-4.215 33.467-1.772 9.252 2.017 16.278 7.922 20.714 16.123 4.578 8.462 9.076 17.145 12.115 26.231l58.857 178.31c1.025 3.117 1.755 6.331 2.731 9.895-5.949 3.234-11.997 1.486-17.757 1.77-5.985.295-11.996.066-18.995.065m-66.066-75.393c4.251-2.657 1.308-5.865.48-8.701l-22.287-75.507c-.715-2.406-1.79-4.706-3.495-9.121l-28.936 93.503 54.238-.175z"/><path fill="#a7a7aa" d="M1602.153 995.791v13.541c-7.365-.042-13.826.028-18.741 5.749-2.455 2.858-6.297 2.766-10.046.484-2.986-1.817-6.571-3.278-10.003-3.573-4.193-.36-5.975 2.507-4.725 6.603.771 2.526 2.373 4.794 3.201 7.31 1.655 5.031 3.58 10.064 4.415 15.253 1.833 11.397-2.638 20.239-12.458 26.203-4.258 2.587-8.853 4.61-13.201 7.058-2.755 1.551-5.335 3.413-8.065 5.182 2.304 5.922 6.991 6.201 10.948 7.322 19.706 5.581 28.528 20.433 22.689 40.382-6.262 21.393-12.578 42.854-20.552 63.64-8.986 23.427-12.46 47.536-13.422 72.274-.114 2.935-.016 5.877-.016 9.323h-43.756V949.259c6.929-2.192 96.386-2.974 113.731-.853v47.385z"/><path d="M2935.854 813.961V648.165c-20.036-1.7-39.561.315-59.521-1.22v-40.567h196.313v41.002c-19.801.322-39.301-.043-59.853.224v187.882c-8.145 2.186-62.698 2.672-76.939.761v-22.285zM1504.128 1848.034c.008 34.807-3.471 68.18-14.529 100.307-8.61 25.014-21.849 47.215-43.937 62.843-15.722 11.125-32.936 17.387-52.616 12.947-27.207-6.139-42.716-31.225-36.075-58.297 4.137-16.865 12.756-31.573 23.534-44.753 12.417-15.185 25.488-29.928 39.26-43.891 21.472-21.77 35.827-47.036 41.088-77.195 2.817-16.148 2.951-32.357-.016-48.611-1.062-5.818-1.157-11.953-.708-17.867.438-5.766 4.633-7.723 9.027-4.155 4.051 3.289 7.642 7.474 10.468 11.884 9.47 14.779 14.412 31.406 18.195 48.347 4.219 18.893 6.289 38.072 6.309 58.443z" fill="#e47726"/><path fill="#e57826" d="M2761.713 744V606.458h75.824v229.308c-6.982 1.906-61.173 2.413-75.779.489l-.045-92.254z"/><path d="M2337.903 1116.078c16.081 16.594 35.093 25.937 57.717 28.567v83.976c-81.009.869-165.215-71.872-166.322-168.238 6.637-2.292 65.669-3.087 84.009-1.011 2.393 20.886 9.343 40.273 24.596 56.706zm216.06-57.549h23.614c3.397 73.026-59.456 166.093-164.286 170.863-2.266-6.676-2.815-72.504-.653-84.343 47.659-8.551 74.938-36.996 82.008-86.48l59.317-.04z" fill="#a6a6a9"/><path d="M2315.568 903.523c24.984-14.289 51.052-22.2 79.89-23.525v84.553c-45.009 7.445-72.31 33.715-81.577 78.821h-84.194c.352-5.388.216-10.596 1.094-15.627 9.408-53.916 37.413-95.267 84.786-124.222zm145.218 81.627c-14.321-11.706-30.289-17.784-47.593-20.07-2.095-7.26-2.731-69.109-.966-83.646 74.628-3.079 162.089 66.716 165.489 160.782-6.807 2.033-66.301 2.741-84.149.896-4.145-22.551-13.921-42.486-32.78-57.963z" fill="#a7a7aa"/><path fill="#e37726" d="M2361.979 2028.265c1.654-22.03 7.506-42.137 14.769-61.857 5.453-14.807 9.514-29.863 9.036-45.745-.677-22.493-7.024-43.234-20.083-61.769-3.751-5.323-8.293-10.435-6.911-18.075 5.515-2.452 9.939.101 14.23 2.49 11.879 6.612 21.006 16.417 29.292 26.859 26.015 32.788 41.42 70.467 49.094 111.296 3.41 18.143 2.765 36.472-3.13 54.298-4.278 12.938-10.988 24.27-21.868 32.744-9.94 7.741-21.156 11.254-33.71 8.661-17.901-3.698-28.753-16.59-30.507-35.987-.359-3.97-.163-7.99-.211-12.915z"/><path fill="#e37626" d="M2709.208 2381.159c10.085-7.84 20.155-14.34 31.902-17.553 3.382-.925 7.293-1.224 10.681-.499 4.725 1.011 5.837 5.247 3.063 9.312-.737 1.08-1.719 2.066-2.772 2.848-19.117 14.198-25.112 34.355-25.952 56.886-.517 13.865-3.686 27.156-10.794 39.048-3.507 5.868-8.13 11.577-13.51 15.718-14.181 10.914-30.929 5.886-37.217-10.808-4.912-13.041-3.666-26.204 1.127-39.057 7.408-19.868 20.903-35.385 36.028-49.679 2.174-2.054 4.582-3.859 7.445-6.216z"/><path fill="#e27626" d="M1932.802 1706.988c5.139-9.442 9.563-18.431 14.816-26.906 13.564-21.885 16.397-44.607 6.661-68.689-1.584-3.918-3.812-7.932-1.059-12.756 6.653.555 10.286 5.498 13.87 10.129 9.754 12.603 15.47 27.159 19.38 42.429 5.584 21.81 8.291 43.867 3.543 66.219-2.62 12.337-8.057 23.285-17.856 31.624-6.572 5.593-14.179 9.01-22.9 8.272-15.153-1.282-25.108-14.099-22.629-29.547 1.097-6.832 3.84-13.4 6.173-20.775z"/><path fill="#e37626" d="M2812.885 549.627c-23.354 7.919-45.309-6.852-51.019-26.703-5.892-20.486 6.475-42.909 26.973-48.713 21.177-5.996 43.334 6.62 49.302 27.521 5.756 20.159-6.362 40.854-25.256 47.894z"/><path fill="#a5a4a7" d="M1730.58 1099.441c9.921 1.195 18.385 4.15 26.026 9.116 15.97 10.38 16.436 26.935.167 36.903-7.726 4.734-17.027 7.719-26.008 9.409-16.697 3.143-33.241 1.289-48.611-6.639-8.547-4.408-16.112-10.078-16.194-20.935-.082-10.895 7.463-16.709 16.018-21.013 5.856-2.947 12.318-4.686 19.933-7.489l1.974 11.456c1.745 11.07 5.373 21.324 13.226 29.626 4.911 5.192 7.371 5.832 14.248 4.052-5.458-10.165-15.098-18.167-15.545-30.542-.165-4.563-.027-9.137-.027-15.004l14.792 1.06z"/><path fill="#1e1918" d="M2442.008 2823.994l1.321.8c-.461.028-.923.056-1.369-.342.015-.425.039-.449.049-.458z"/><path fill="#1f1c1b" d="M1250 1152h-50.677l49.46-100.48 49.246 100.19-24.096.28-23.933.01z"/><path d="M2004.996 636.509c9.469 8.11 12.565 18.662 14.813 29.493 4.289 20.666 4.366 41.635 4.237 62.634-.113 18.367-1.052 36.632-5.977 54.4-1.576 5.685-3.892 11.452-7.141 16.335-10.699 16.08-34.097 16.15-44.624-.061-3.886-5.984-6.44-13.153-8.206-20.135-5.863-23.169-4.805-46.911-4.68-70.533.081-15.328.805-30.628 4.594-45.584 1.058-4.177 2.186-8.399 3.888-12.339 8.168-18.913 23.928-24.273 43.096-14.209zm1167.493 85.439c.758-20.536.472-40.241 5.447-59.41 1.408-5.426 3.277-10.842 5.756-15.857 4.804-9.717 12.693-15.008 23.868-15.179 11.48-.175 20.495 4.435 25.009 14.819 3.794 8.728 6.911 18.129 8.158 27.52 4.799 36.12 5.41 72.295-2.702 108.116-1.298 5.733-3.624 11.522-6.728 16.503-10.889 17.474-35.766 17.056-46.475-.519-7.317-12.009-9.102-25.648-10.522-39.182-1.247-11.888-1.257-23.905-1.813-36.812z" fill="#1f1a18"/><path fill="#221b18" d="M1223.031 762.019l-53.335.087c9.111-31.337 18.994-61.323 28.936-93.503 1.705 4.414 2.779 6.714 3.495 9.121l22.287 75.507c.828 2.837 3.771 6.044-1.383 8.789z"/></svg>